# xmcd
#
# Track frame offsets:
#	182
#	12520
#	25207
#	36050
#	48030
#	60575
#	70680
#	81167
#	94077
#	106570
#	116762
#	126785
#	136960
#	149780
#
# Disc length: 2153 seconds
#
# Revision: 0
# Processed by: cddbd v1.5.1PL0 Copyright (c) Steve Scherf et al.
# Submitted via: audiograbber 1.83.01
#
DISCID=b908670e
DTITLE=André Verchuren - Les Plus Beaux Tangos Du Monde
DYEAR=1900
DGENRE=Tango
TTITLE0=La Cumparsita
TTITLE1=Adios Muchachos
TTITLE2=Nuits
TTITLE3=Caminito
TTITLE4=9 De  Julio
TTITLE5=Rosa Tango
TTITLE6=Dansons Nous Deux
TTITLE7=La Poloma
TTITLE8=Poema
TTITLE9=Rodriguez Pena
TTITLE10=Jalousie
TTITLE11=Una Lacrima Tuya
TTITLE12=Histoire De Tango
TTITLE13=Puisque C'est Fini Nous Deux
EXTD=
EXTT0=
EXTT1=
EXTT2=
EXTT3=
EXTT4=
EXTT5=
EXTT6=
EXTT7=
EXTT8=
EXTT9=
EXTT10=
EXTT11=
EXTT12=
EXTT13=
PLAYORDER=
